<svg width="151" height="101" viewBox="0 0 151 101" fill="none" xmlns="http://www.w3.org/2000/svg">
    <g filter="url(#filter0_d_5_1200)">
        <path
            d="M92.027 62.6646C110.863 52.097 134.695 58.6404 145.494 77.3447L129.242 86.7276C110.32 97.6525 86.1189 91.0327 75.3916 71.9976L92.027 62.6646Z"
            fill="#FF828F" />
        <path
            d="M92.5163 63.5367C110.583 53.4006 133.366 59.4162 144.117 76.9851L128.742 85.8616C110.592 96.3407 87.4578 90.2558 76.7659 72.3732L92.5163 63.5367Z"
            stroke="#FF0000" stroke-width="2" />
        <path
            d="M85.1361 55.2564C95.8965 36.619 119.728 30.2333 138.365 40.9936L128.624 57.8666C117.863 76.504 94.0319 82.8896 75.3945 72.1293L85.1361 55.2564Z"
            fill="#FF828F" />
        <path
            d="M86.0022 55.7564C96.3192 37.8868 118.969 31.577 136.993 41.3708L127.758 57.3666C117.441 75.2361 94.7909 81.546 76.767 71.7521L86.0022 55.7564Z"
            stroke="#FF0000" stroke-width="2" />
        <path
            d="M74.5518 53.4508C74.5518 30.8473 92.8756 12.5234 115.479 12.5234V31.6228C115.479 54.2264 97.1553 72.5502 74.5518 72.5502V53.4508Z"
            fill="#FF828F" />
        <path
            d="M75.5518 53.4508C75.5518 31.7339 92.8899 14.0664 114.479 13.5357V31.6228C114.479 53.3398 97.1409 71.0072 75.5518 71.5379V53.4508Z"
            stroke="#FF0000" stroke-width="2" />
        <path
            d="M64.896 54.2292C54.1357 35.5919 60.5213 11.7603 79.1587 1L88.9003 17.873C99.6606 36.5104 93.275 60.3419 74.6376 71.1022L64.896 54.2292Z"
            fill="#FF828F" />
        <path
            d="M65.762 53.7292C55.445 35.8597 61.3054 13.0894 78.7991 2.37721L88.0343 18.373C98.3513 36.2425 92.4909 59.0128 74.9972 69.725L65.762 53.7292Z"
            stroke="#FF0000" stroke-width="2" />
        <path
            d="M74.5524 50.7223C74.5524 29.6257 57.4502 12.5234 36.3535 12.5234V34.3513C36.3535 55.448 53.4557 72.5502 74.5524 72.5502V50.7223Z"
            fill="#FF828F" />
        <path
            d="M37.3535 13.5366C57.4356 14.0666 73.5524 30.5123 73.5524 50.7223V71.537C53.4703 71.007 37.3535 54.5613 37.3535 34.3513V13.5366Z"
            stroke="#FF0000" stroke-width="2" />
        <path
            d="M66.3298 55.2564C55.5695 36.619 31.738 30.2333 13.1006 40.9936L22.8422 57.8666C33.6025 76.504 57.434 82.8896 76.0714 72.1293L66.3298 55.2564Z"
            fill="#FF828F" />
        <path
            d="M74.699 71.7521C56.675 81.546 34.0252 75.2361 23.7082 57.3666L14.4731 41.3708C32.497 31.577 55.1468 37.8868 65.4638 55.7564L74.699 71.7521Z"
            stroke="#FF0000" stroke-width="2" />
        <path
            d="M59.4385 62.6646C40.6025 52.097 16.7706 58.6404 5.97168 77.3447L22.2233 86.7276C41.1457 97.6525 65.3465 91.0327 76.0739 71.9976L59.4385 62.6646Z"
            fill="#FF828F" />
        <path
            d="M74.6996 72.3732C64.0077 90.2558 40.8738 96.3407 22.7233 85.8616L7.34875 76.9851C18.0995 59.4162 40.8823 53.4006 58.9492 63.5367L74.6996 72.3732Z"
            stroke="#FF0000" stroke-width="2" />
    </g>
    <defs>
        <filter id="filter0_d_5_1200" x="0.97168" y="0" width="149.522" height="100.996"
            filterUnits="userSpaceOnUse" color-interpolation-filters="sRGB">
            <feFlood flood-opacity="0" result="BackgroundImageFix" />
            <feColorMatrix in="SourceAlpha" type="matrix"
                values="0 0 0 0 0 0 0 0 0 0 0 0 0 0 0 0 0 0 127 0" result="hardAlpha" />
            <feOffset dy="4" />
            <feGaussianBlur stdDeviation="2.5" />
            <feComposite in2="hardAlpha" operator="out" />
            <feColorMatrix type="matrix" values="0 0 0 0 0 0 0 0 0 0 0 0 0 0 0 0 0 0 0.5 0" />
            <feBlend mode="normal" in2="BackgroundImageFix" result="effect1_dropShadow_5_1200" />
            <feBlend mode="normal" in="SourceGraphic" in2="effect1_dropShadow_5_1200" result="shape" />
        </filter>
    </defs>
</svg>